<?xml version="1.0" encoding="UTF-8" standalone="no"?>
<!DOCTYPE svg PUBLIC "-//W3C//DTD SVG 1.1//EN"
 "http://www.w3.org/Graphics/SVG/1.1/DTD/svg11.dtd">
<!-- Generated by graphviz version 2.40.1 (20161225.0304)
 -->
<!-- Title: oneDegreeRelationshipsDiagram Pages: 1 -->
<svg width="368pt" height="179pt"
 viewBox="0.00 0.00 368.00 178.70" xmlns="http://www.w3.org/2000/svg" xmlns:xlink="http://www.w3.org/1999/xlink">
<g id="graph0" class="graph" transform="scale(1 1) rotate(0) translate(4 174.7)">
<title>oneDegreeRelationshipsDiagram</title>
<polygon fill="#ffffff" stroke="transparent" points="-4,4 -4,-174.7 364,-174.7 364,4 -4,4"/>
<text text-anchor="middle" x="72.4936" y="-7.3" font-family="Helvetica,sans-Serif" font-size="11.00" fill="#000000">Generated by SchemaSpy</text>
<!-- commentaire -->
<g id="node1" class="node">
<title>commentaire</title>
<g id="a_node1"><a xlink:href="../../tables/commentaire.html" xlink:title="commentaire" target="_top">
<polygon fill="#ffffff" stroke="transparent" points="142,-54.7 142,-166.7 352,-166.7 352,-54.7 142,-54.7"/>
<polygon fill="#f5f5f5" stroke="transparent" points="144,-141.7 144,-164.7 350,-164.7 350,-141.7 144,-141.7"/>
<polygon fill="none" stroke="#000000" points="144,-141.7 144,-164.7 350,-164.7 350,-141.7 144,-141.7"/>
<text text-anchor="start" x="149" y="-150.3" font-family="Helvetica,sans-Serif" font-weight="bold" font-size="11.00" fill="#000000">commentaire</text>
<text text-anchor="start" x="315.0437" y="-149.8" font-family="Helvetica,sans-Serif" font-size="11.00" fill="#000000">[table]</text>
<polygon fill="none" stroke="#000000" points="144,-119.7 144,-141.7 239,-141.7 239,-119.7 144,-119.7"/>
<image xlink:href="../../images/primaryKeys.png" width="11px" height="12px" preserveAspectRatio="xMinYMin meet" x="149" y="-136.7"/>
<text text-anchor="start" x="164" y="-126.8" font-family="Helvetica,sans-Serif" font-size="11.00" fill="#000000">id</text>
<polygon fill="none" stroke="#000000" points="239,-119.7 239,-141.7 350,-141.7 350,-119.7 239,-119.7"/>
<text text-anchor="start" x="242" y="-127.4" font-family="Helvetica,sans-Serif" font-size="11.00" fill="#000000">int[10]</text>
<polygon fill="none" stroke="#000000" points="144,-97.7 144,-119.7 239,-119.7 239,-97.7 144,-97.7"/>
<text text-anchor="start" x="164" y="-104.8" font-family="Helvetica,sans-Serif" font-size="11.00" fill="#000000">contenu</text>
<polygon fill="none" stroke="#000000" points="239,-97.7 239,-119.7 350,-119.7 350,-97.7 239,-97.7"/>
<text text-anchor="start" x="241.6115" y="-105.4" font-family="Helvetica,sans-Serif" font-size="11.00" fill="#000000">longtext[2147483647]</text>
<polygon fill="#ffffff" stroke="transparent" points="144,-75.7 144,-97.7 239,-97.7 239,-75.7 144,-75.7"/>
<polygon fill="none" stroke="#000000" points="144,-75.7 144,-97.7 239,-97.7 239,-75.7 144,-75.7"/>
<image xlink:href="../../images/foreignKeys.png" width="11px" height="12px" preserveAspectRatio="xMinYMin meet" x="149" y="-92.7"/>
<text text-anchor="start" x="164" y="-82.8" font-family="Helvetica,sans-Serif" font-size="11.00" fill="#000000">post_id</text>
<polygon fill="none" stroke="#000000" points="239,-75.7 239,-97.7 350,-97.7 350,-75.7 239,-75.7"/>
<text text-anchor="start" x="242" y="-83.4" font-family="Helvetica,sans-Serif" font-size="11.00" fill="#000000">int[10]</text>
<polygon fill="#ffffff" stroke="transparent" points="144,-56.7 144,-75.7 183,-75.7 183,-56.7 144,-56.7"/>
<polygon fill="none" stroke="#000000" points="144,-56.7 144,-75.7 183,-75.7 183,-56.7 144,-56.7"/>
<text text-anchor="start" x="147" y="-62.8" font-family="Helvetica,sans-Serif" font-size="11.00" fill="#000000">&lt; 1</text>
<polygon fill="#ffffff" stroke="transparent" points="183,-56.7 183,-75.7 239,-75.7 239,-56.7 183,-56.7"/>
<polygon fill="none" stroke="#000000" points="183,-56.7 183,-75.7 239,-75.7 239,-56.7 183,-56.7"/>
<text text-anchor="start" x="203.6105" y="-62.8" font-family="Helvetica,sans-Serif" font-size="11.00" fill="#000000">0 rows</text>
<polygon fill="#ffffff" stroke="transparent" points="239,-56.7 239,-75.7 350,-75.7 350,-56.7 239,-56.7"/>
<polygon fill="none" stroke="#000000" points="239,-56.7 239,-75.7 350,-75.7 350,-56.7 239,-56.7"/>
<text text-anchor="start" x="331.4053" y="-62.8" font-family="Helvetica,sans-Serif" font-size="11.00" fill="#000000">0 &gt;</text>
<polygon fill="none" stroke="#000000" stroke-width="2" points="143,-55.7 143,-165.7 351,-165.7 351,-55.7 143,-55.7"/>
</a>
</g>
</g>
<!-- post -->
<g id="node2" class="node">
<title>post</title>
<g id="a_node2"><a xlink:href="../../tables/post.html" xlink:title="post" target="_top">
<polygon fill="#ffffff" stroke="transparent" points="8,-38.2 8,-121.2 93,-121.2 93,-38.2 8,-38.2"/>
<polygon fill="#f5f5f5" stroke="transparent" points="8.5,-97.7 8.5,-120.7 93.5,-120.7 93.5,-97.7 8.5,-97.7"/>
<polygon fill="none" stroke="#000000" points="8.5,-97.7 8.5,-120.7 93.5,-120.7 93.5,-97.7 8.5,-97.7"/>
<text text-anchor="start" x="13.5" y="-106.3" font-family="Helvetica,sans-Serif" font-weight="bold" font-size="11.00" fill="#000000">post</text>
<text text-anchor="start" x="58.5437" y="-105.8" font-family="Helvetica,sans-Serif" font-size="11.00" fill="#000000">[table]</text>
<polygon fill="none" stroke="#000000" points="8.5,-75.7 8.5,-97.7 93.5,-97.7 93.5,-75.7 8.5,-75.7"/>
<image xlink:href="../../images/primaryKeys.png" width="11px" height="12px" preserveAspectRatio="xMinYMin meet" x="13.5" y="-92.7"/>
<text text-anchor="start" x="28.5" y="-82.8" font-family="Helvetica,sans-Serif" font-size="11.00" fill="#000000">id</text>
<polygon fill="none" stroke="#000000" points="8.5,-56.7 8.5,-75.7 93.5,-75.7 93.5,-56.7 8.5,-56.7"/>
<text text-anchor="start" x="11.5" y="-62.8" font-family="Helvetica,sans-Serif" font-size="11.00" fill="#000000">...</text>
<polygon fill="#ffffff" stroke="transparent" points="8.5,-37.7 8.5,-56.7 24.5,-56.7 24.5,-37.7 8.5,-37.7"/>
<polygon fill="none" stroke="#000000" points="8.5,-37.7 8.5,-56.7 24.5,-56.7 24.5,-37.7 8.5,-37.7"/>
<text text-anchor="start" x="11.5" y="-43.8" font-family="Helvetica,sans-Serif" font-size="11.00" fill="#000000"> &#160;</text>
<polygon fill="#ffffff" stroke="transparent" points="24.5,-37.7 24.5,-56.7 70.5,-56.7 70.5,-37.7 24.5,-37.7"/>
<polygon fill="none" stroke="#000000" points="24.5,-37.7 24.5,-56.7 70.5,-56.7 70.5,-37.7 24.5,-37.7"/>
<text text-anchor="start" x="28.9956" y="-43.8" font-family="Helvetica,sans-Serif" font-size="11.00" fill="#000000">10 rows</text>
<polygon fill="#ffffff" stroke="transparent" points="70.5,-37.7 70.5,-56.7 93.5,-56.7 93.5,-37.7 70.5,-37.7"/>
<polygon fill="none" stroke="#000000" points="70.5,-37.7 70.5,-56.7 93.5,-56.7 93.5,-37.7 70.5,-37.7"/>
<text text-anchor="start" x="74.9053" y="-43.8" font-family="Helvetica,sans-Serif" font-size="11.00" fill="#000000">1 &gt;</text>
</a>
</g>
</g>
<!-- commentaire&#45;&gt;post -->
<g id="edge1" class="edge">
<title>commentaire:w&#45;&gt;post:e</title>
<path fill="none" stroke="#000000" d="M129.4203,-86.7C117.5435,-86.7 110.158,-86.7 93.5,-86.7"/>
<polygon fill="#000000" stroke="#000000" points="136,-86.7001 144,-90.3 140,-86.7 144,-86.7 144,-86.7 144,-86.7 140,-86.7 144,-83.1 136,-86.7001 136,-86.7001"/>
<ellipse fill="none" stroke="#000000" cx="132.8" cy="-86.7001" rx="3.2" ry="3.2"/>
</g>
</g>
</svg>
