<?xml version="1.0" encoding="UTF-8" standalone="no"?>
<!DOCTYPE svg PUBLIC "-//W3C//DTD SVG 1.1//EN"
 "http://www.w3.org/Graphics/SVG/1.1/DTD/svg11.dtd">
<!-- Generated by graphviz version 2.40.1 (20161225.0304)
 -->
<!-- Title: oneDegreeRelationshipsDiagram Pages: 1 -->
<svg width="386pt" height="183pt"
 viewBox="0.00 0.00 386.00 182.70" xmlns="http://www.w3.org/2000/svg" xmlns:xlink="http://www.w3.org/1999/xlink">
<g id="graph0" class="graph" transform="scale(1 1) rotate(0) translate(4 178.7)">
<title>oneDegreeRelationshipsDiagram</title>
<polygon fill="#ffffff" stroke="transparent" points="-4,4 -4,-178.7 382,-178.7 382,4 -4,4"/>
<text text-anchor="middle" x="72.4936" y="-7.3" font-family="Helvetica,sans-Serif" font-size="11.00" fill="#000000">Generated by SchemaSpy</text>
<!-- commentaire -->
<g id="node1" class="node">
<title>commentaire</title>
<g id="a_node1"><a xlink:href="../../tables/commentaire.html" xlink:title="commentaire" target="_top">
<polygon fill="#ffffff" stroke="transparent" points="257,-65.7 257,-170.7 370,-170.7 370,-65.7 257,-65.7"/>
<polygon fill="#f5f5f5" stroke="transparent" points="257.5,-147.2 257.5,-170.2 370.5,-170.2 370.5,-147.2 257.5,-147.2"/>
<polygon fill="none" stroke="#000000" points="257.5,-147.2 257.5,-170.2 370.5,-170.2 370.5,-147.2 257.5,-147.2"/>
<text text-anchor="start" x="262.5" y="-155.8" font-family="Helvetica,sans-Serif" font-weight="bold" font-size="11.00" fill="#000000">commentaire</text>
<text text-anchor="start" x="336.0219" y="-155.3" font-family="Helvetica,sans-Serif" font-size="11.00" fill="#000000">[table]</text>
<polygon fill="none" stroke="#000000" points="257.5,-125.2 257.5,-147.2 370.5,-147.2 370.5,-125.2 257.5,-125.2"/>
<image xlink:href="../../images/primaryKeys.png" width="11px" height="12px" preserveAspectRatio="xMinYMin meet" x="262.5" y="-142.2"/>
<text text-anchor="start" x="286.5" y="-132.3" font-family="Helvetica,sans-Serif" font-size="11.00" fill="#000000">id</text>
<polygon fill="#ffffff" stroke="transparent" points="257.5,-103.2 257.5,-125.2 370.5,-125.2 370.5,-103.2 257.5,-103.2"/>
<polygon fill="none" stroke="#000000" points="257.5,-103.2 257.5,-125.2 370.5,-125.2 370.5,-103.2 257.5,-103.2"/>
<image xlink:href="../../images/foreignKeys.png" width="11px" height="12px" preserveAspectRatio="xMinYMin meet" x="262.5" y="-120.2"/>
<text text-anchor="start" x="286.5" y="-110.3" font-family="Helvetica,sans-Serif" font-size="11.00" fill="#000000">post_id</text>
<polygon fill="none" stroke="#000000" points="257.5,-84.2 257.5,-103.2 370.5,-103.2 370.5,-84.2 257.5,-84.2"/>
<text text-anchor="start" x="260.5" y="-90.3" font-family="Helvetica,sans-Serif" font-size="11.00" fill="#000000">...</text>
<polygon fill="#ffffff" stroke="transparent" points="257.5,-65.2 257.5,-84.2 299.5,-84.2 299.5,-65.2 257.5,-65.2"/>
<polygon fill="none" stroke="#000000" points="257.5,-65.2 257.5,-84.2 299.5,-84.2 299.5,-65.2 257.5,-65.2"/>
<text text-anchor="start" x="260.5" y="-71.3" font-family="Helvetica,sans-Serif" font-size="11.00" fill="#000000">&lt; 1</text>
<polygon fill="#ffffff" stroke="transparent" points="299.5,-65.2 299.5,-84.2 347.5,-84.2 347.5,-65.2 299.5,-65.2"/>
<polygon fill="none" stroke="#000000" points="299.5,-65.2 299.5,-84.2 347.5,-84.2 347.5,-65.2 299.5,-65.2"/>
<text text-anchor="start" x="312.1105" y="-71.3" font-family="Helvetica,sans-Serif" font-size="11.00" fill="#000000">0 rows</text>
<polygon fill="#ffffff" stroke="transparent" points="347.5,-65.2 347.5,-84.2 370.5,-84.2 370.5,-65.2 347.5,-65.2"/>
<polygon fill="none" stroke="#000000" points="347.5,-65.2 347.5,-84.2 370.5,-84.2 370.5,-65.2 347.5,-65.2"/>
<text text-anchor="start" x="361.3862" y="-71.3" font-family="Helvetica,sans-Serif" font-size="11.00" fill="#000000"> &#160;</text>
</a>
</g>
</g>
<!-- post -->
<g id="node2" class="node">
<title>post</title>
<g id="a_node2"><a xlink:href="../../tables/post.html" xlink:title="post" target="_top">
<polygon fill="#ffffff" stroke="transparent" points="8,-38.2 8,-150.2 208,-150.2 208,-38.2 8,-38.2"/>
<polygon fill="#f5f5f5" stroke="transparent" points="10,-125.2 10,-148.2 206,-148.2 206,-125.2 10,-125.2"/>
<polygon fill="none" stroke="#000000" points="10,-125.2 10,-148.2 206,-148.2 206,-125.2 10,-125.2"/>
<text text-anchor="start" x="15" y="-133.8" font-family="Helvetica,sans-Serif" font-weight="bold" font-size="11.00" fill="#000000">post</text>
<text text-anchor="start" x="171.0437" y="-133.3" font-family="Helvetica,sans-Serif" font-size="11.00" fill="#000000">[table]</text>
<polygon fill="none" stroke="#000000" points="10,-103.2 10,-125.2 95,-125.2 95,-103.2 10,-103.2"/>
<image xlink:href="../../images/primaryKeys.png" width="11px" height="12px" preserveAspectRatio="xMinYMin meet" x="15" y="-120.2"/>
<text text-anchor="start" x="30" y="-110.3" font-family="Helvetica,sans-Serif" font-size="11.00" fill="#000000">id</text>
<polygon fill="none" stroke="#000000" points="95,-103.2 95,-125.2 206,-125.2 206,-103.2 95,-103.2"/>
<text text-anchor="start" x="98" y="-110.9" font-family="Helvetica,sans-Serif" font-size="11.00" fill="#000000">int[10]</text>
<polygon fill="none" stroke="#000000" points="10,-81.2 10,-103.2 95,-103.2 95,-81.2 10,-81.2"/>
<text text-anchor="start" x="30" y="-88.3" font-family="Helvetica,sans-Serif" font-size="11.00" fill="#000000">titre</text>
<polygon fill="none" stroke="#000000" points="95,-81.2 95,-103.2 206,-103.2 206,-81.2 95,-81.2"/>
<text text-anchor="start" x="98" y="-88.9" font-family="Helvetica,sans-Serif" font-size="11.00" fill="#000000">varchar[255]</text>
<polygon fill="none" stroke="#000000" points="10,-59.2 10,-81.2 95,-81.2 95,-59.2 10,-59.2"/>
<text text-anchor="start" x="30" y="-66.3" font-family="Helvetica,sans-Serif" font-size="11.00" fill="#000000">description</text>
<polygon fill="none" stroke="#000000" points="95,-59.2 95,-81.2 206,-81.2 206,-59.2 95,-59.2"/>
<text text-anchor="start" x="97.6115" y="-66.9" font-family="Helvetica,sans-Serif" font-size="11.00" fill="#000000">longtext[2147483647]</text>
<polygon fill="#ffffff" stroke="transparent" points="10,-40.2 10,-59.2 41,-59.2 41,-40.2 10,-40.2"/>
<polygon fill="none" stroke="#000000" points="10,-40.2 10,-59.2 41,-59.2 41,-40.2 10,-40.2"/>
<text text-anchor="start" x="13" y="-46.3" font-family="Helvetica,sans-Serif" font-size="11.00" fill="#000000">&lt; 0</text>
<polygon fill="#ffffff" stroke="transparent" points="41,-40.2 41,-59.2 95,-59.2 95,-40.2 41,-40.2"/>
<polygon fill="none" stroke="#000000" points="41,-40.2 41,-59.2 95,-59.2 95,-40.2 41,-40.2"/>
<text text-anchor="start" x="53.4956" y="-46.3" font-family="Helvetica,sans-Serif" font-size="11.00" fill="#000000">10 rows</text>
<polygon fill="#ffffff" stroke="transparent" points="95,-40.2 95,-59.2 206,-59.2 206,-40.2 95,-40.2"/>
<polygon fill="none" stroke="#000000" points="95,-40.2 95,-59.2 206,-59.2 206,-40.2 95,-40.2"/>
<text text-anchor="start" x="187.4053" y="-46.3" font-family="Helvetica,sans-Serif" font-size="11.00" fill="#000000">1 &gt;</text>
<polygon fill="none" stroke="#000000" stroke-width="2" points="9,-39.2 9,-149.2 207,-149.2 207,-39.2 9,-39.2"/>
</a>
</g>
</g>
<!-- commentaire&#45;&gt;post -->
<g id="edge1" class="edge">
<title>commentaire:w&#45;&gt;post:e</title>
<path fill="none" stroke="#000000" d="M243.0156,-114.2C230.6771,-114.2 223.1667,-114.2 206,-114.2"/>
<polygon fill="#000000" stroke="#000000" points="249.5,-114.2001 257.5,-117.8 253.5,-114.2 257.5,-114.2 257.5,-114.2 257.5,-114.2 253.5,-114.2 257.5,-110.6 249.5,-114.2001 249.5,-114.2001"/>
<ellipse fill="none" stroke="#000000" cx="246.3" cy="-114.2001" rx="3.2" ry="3.2"/>
</g>
</g>
</svg>
