<?xml version="1.0" encoding="UTF-8" standalone="no"?>
<!DOCTYPE svg PUBLIC "-//W3C//DTD SVG 1.1//EN"
 "http://www.w3.org/Graphics/SVG/1.1/DTD/svg11.dtd">
<!-- Generated by graphviz version 2.40.1 (20161225.0304)
 -->
<!-- Title: largeRelationshipsDiagram Pages: 1 -->
<svg width="271pt" height="202pt"
 viewBox="0.00 0.00 271.00 202.20" xmlns="http://www.w3.org/2000/svg" xmlns:xlink="http://www.w3.org/1999/xlink">
<g id="graph0" class="graph" transform="scale(1 1) rotate(0) translate(4 198.2)">
<title>largeRelationshipsDiagram</title>
<polygon fill="#ffffff" stroke="transparent" points="-4,4 -4,-198.2 267,-198.2 267,4 -4,4"/>
<text text-anchor="middle" x="72.4936" y="-7.3" font-family="Helvetica,sans-Serif" font-size="11.00" fill="#000000">Generated by SchemaSpy</text>
<!-- commentaire -->
<g id="node1" class="node">
<title>commentaire</title>
<g id="a_node1"><a xlink:href="../../tables/commentaire.html" xlink:title="commentaire" target="_top">
<polygon fill="#ffffff" stroke="transparent" points="142,-82.2 142,-190.2 255,-190.2 255,-82.2 142,-82.2"/>
<polygon fill="#f5f5f5" stroke="transparent" points="142.5,-167.2 142.5,-190.2 255.5,-190.2 255.5,-167.2 142.5,-167.2"/>
<polygon fill="none" stroke="#000000" points="142.5,-167.2 142.5,-190.2 255.5,-190.2 255.5,-167.2 142.5,-167.2"/>
<text text-anchor="start" x="147.5" y="-175.8" font-family="Helvetica,sans-Serif" font-weight="bold" font-size="11.00" fill="#000000">commentaire</text>
<text text-anchor="start" x="221.0219" y="-175.3" font-family="Helvetica,sans-Serif" font-size="11.00" fill="#000000">[table]</text>
<polygon fill="none" stroke="#000000" points="142.5,-145.2 142.5,-167.2 255.5,-167.2 255.5,-145.2 142.5,-145.2"/>
<image xlink:href="../../images/primaryKeys.png" width="11px" height="12px" preserveAspectRatio="xMinYMin meet" x="147.5" y="-162.2"/>
<text text-anchor="start" x="171.5" y="-152.3" font-family="Helvetica,sans-Serif" font-size="11.00" fill="#000000">id</text>
<polygon fill="none" stroke="#000000" points="142.5,-123.2 142.5,-145.2 255.5,-145.2 255.5,-123.2 142.5,-123.2"/>
<text text-anchor="start" x="171.5" y="-130.3" font-family="Helvetica,sans-Serif" font-size="11.00" fill="#000000">contenu</text>
<polygon fill="#ffffff" stroke="transparent" points="142.5,-101.2 142.5,-123.2 255.5,-123.2 255.5,-101.2 142.5,-101.2"/>
<polygon fill="none" stroke="#000000" points="142.5,-101.2 142.5,-123.2 255.5,-123.2 255.5,-101.2 142.5,-101.2"/>
<image xlink:href="../../images/foreignKeys.png" width="11px" height="12px" preserveAspectRatio="xMinYMin meet" x="147.5" y="-118.2"/>
<text text-anchor="start" x="171.5" y="-108.3" font-family="Helvetica,sans-Serif" font-size="11.00" fill="#000000">post_id</text>
<polygon fill="#ffffff" stroke="transparent" points="142.5,-82.2 142.5,-101.2 184.5,-101.2 184.5,-82.2 142.5,-82.2"/>
<polygon fill="none" stroke="#000000" points="142.5,-82.2 142.5,-101.2 184.5,-101.2 184.5,-82.2 142.5,-82.2"/>
<text text-anchor="start" x="145.5" y="-88.3" font-family="Helvetica,sans-Serif" font-size="11.00" fill="#000000">&lt; 1</text>
<polygon fill="#ffffff" stroke="transparent" points="184.5,-82.2 184.5,-101.2 232.5,-101.2 232.5,-82.2 184.5,-82.2"/>
<polygon fill="none" stroke="#000000" points="184.5,-82.2 184.5,-101.2 232.5,-101.2 232.5,-82.2 184.5,-82.2"/>
<text text-anchor="start" x="197.1105" y="-88.3" font-family="Helvetica,sans-Serif" font-size="11.00" fill="#000000">0 rows</text>
<polygon fill="#ffffff" stroke="transparent" points="232.5,-82.2 232.5,-101.2 255.5,-101.2 255.5,-82.2 232.5,-82.2"/>
<polygon fill="none" stroke="#000000" points="232.5,-82.2 232.5,-101.2 255.5,-101.2 255.5,-82.2 232.5,-82.2"/>
<text text-anchor="start" x="246.3862" y="-88.3" font-family="Helvetica,sans-Serif" font-size="11.00" fill="#000000"> &#160;</text>
</a>
</g>
</g>
<!-- post -->
<g id="node2" class="node">
<title>post</title>
<g id="a_node2"><a xlink:href="../../tables/post.html" xlink:title="post" target="_top">
<polygon fill="#ffffff" stroke="transparent" points="8,-38.2 8,-146.2 93,-146.2 93,-38.2 8,-38.2"/>
<polygon fill="#f5f5f5" stroke="transparent" points="8.5,-123.2 8.5,-146.2 93.5,-146.2 93.5,-123.2 8.5,-123.2"/>
<polygon fill="none" stroke="#000000" points="8.5,-123.2 8.5,-146.2 93.5,-146.2 93.5,-123.2 8.5,-123.2"/>
<text text-anchor="start" x="13.5" y="-131.8" font-family="Helvetica,sans-Serif" font-weight="bold" font-size="11.00" fill="#000000">post</text>
<text text-anchor="start" x="58.5437" y="-131.3" font-family="Helvetica,sans-Serif" font-size="11.00" fill="#000000">[table]</text>
<polygon fill="none" stroke="#000000" points="8.5,-101.2 8.5,-123.2 93.5,-123.2 93.5,-101.2 8.5,-101.2"/>
<image xlink:href="../../images/primaryKeys.png" width="11px" height="12px" preserveAspectRatio="xMinYMin meet" x="13.5" y="-118.2"/>
<text text-anchor="start" x="28.5" y="-108.3" font-family="Helvetica,sans-Serif" font-size="11.00" fill="#000000">id</text>
<polygon fill="none" stroke="#000000" points="8.5,-79.2 8.5,-101.2 93.5,-101.2 93.5,-79.2 8.5,-79.2"/>
<text text-anchor="start" x="28.5" y="-86.3" font-family="Helvetica,sans-Serif" font-size="11.00" fill="#000000">titre</text>
<polygon fill="none" stroke="#000000" points="8.5,-57.2 8.5,-79.2 93.5,-79.2 93.5,-57.2 8.5,-57.2"/>
<text text-anchor="start" x="28.5" y="-64.3" font-family="Helvetica,sans-Serif" font-size="11.00" fill="#000000">description</text>
<polygon fill="#ffffff" stroke="transparent" points="8.5,-38.2 8.5,-57.2 24.5,-57.2 24.5,-38.2 8.5,-38.2"/>
<polygon fill="none" stroke="#000000" points="8.5,-38.2 8.5,-57.2 24.5,-57.2 24.5,-38.2 8.5,-38.2"/>
<text text-anchor="start" x="11.5" y="-44.3" font-family="Helvetica,sans-Serif" font-size="11.00" fill="#000000"> &#160;</text>
<polygon fill="#ffffff" stroke="transparent" points="24.5,-38.2 24.5,-57.2 70.5,-57.2 70.5,-38.2 24.5,-38.2"/>
<polygon fill="none" stroke="#000000" points="24.5,-38.2 24.5,-57.2 70.5,-57.2 70.5,-38.2 24.5,-38.2"/>
<text text-anchor="start" x="28.9956" y="-44.3" font-family="Helvetica,sans-Serif" font-size="11.00" fill="#000000">10 rows</text>
<polygon fill="#ffffff" stroke="transparent" points="70.5,-38.2 70.5,-57.2 93.5,-57.2 93.5,-38.2 70.5,-38.2"/>
<polygon fill="none" stroke="#000000" points="70.5,-38.2 70.5,-57.2 93.5,-57.2 93.5,-38.2 70.5,-38.2"/>
<text text-anchor="start" x="74.9053" y="-44.3" font-family="Helvetica,sans-Serif" font-size="11.00" fill="#000000">1 &gt;</text>
</a>
</g>
</g>
<!-- commentaire&#45;&gt;post -->
<g id="edge1" class="edge">
<title>commentaire:w&#45;&gt;post:e</title>
<path fill="none" stroke="#000000" d="M127.9909,-112.2C116.6774,-112.2 109.4931,-112.2 93.5,-112.2"/>
<polygon fill="#000000" stroke="#000000" points="134.5,-112.2001 142.5,-115.8 138.5,-112.2 142.5,-112.2 142.5,-112.2 142.5,-112.2 138.5,-112.2 142.5,-108.6 134.5,-112.2001 134.5,-112.2001"/>
<ellipse fill="none" stroke="#000000" cx="131.3" cy="-112.2001" rx="3.2" ry="3.2"/>
</g>
</g>
</svg>
