<?xml version="1.0" encoding="UTF-8" standalone="no"?>
<!DOCTYPE svg PUBLIC "-//W3C//DTD SVG 1.1//EN"
 "http://www.w3.org/Graphics/SVG/1.1/DTD/svg11.dtd">
<!-- Generated by graphviz version 2.40.1 (20161225.0304)
 -->
<!-- Title: compactRelationshipsDiagram Pages: 1 -->
<svg width="271pt" height="155pt"
 viewBox="0.00 0.00 271.00 155.20" xmlns="http://www.w3.org/2000/svg" xmlns:xlink="http://www.w3.org/1999/xlink">
<g id="graph0" class="graph" transform="scale(1 1) rotate(0) translate(4 151.2)">
<title>compactRelationshipsDiagram</title>
<polygon fill="#ffffff" stroke="transparent" points="-4,4 -4,-151.2 267,-151.2 267,4 -4,4"/>
<text text-anchor="middle" x="72.4936" y="-7.3" font-family="Helvetica,sans-Serif" font-size="11.00" fill="#000000">Generated by SchemaSpy</text>
<!-- commentaire -->
<g id="node1" class="node">
<title>commentaire</title>
<g id="a_node1"><a xlink:href="../../tables/commentaire.html" xlink:title="commentaire" target="_top">
<polygon fill="#ffffff" stroke="transparent" points="142,-38.2 142,-143.2 255,-143.2 255,-38.2 142,-38.2"/>
<polygon fill="#f5f5f5" stroke="transparent" points="142.5,-119.7 142.5,-142.7 255.5,-142.7 255.5,-119.7 142.5,-119.7"/>
<polygon fill="none" stroke="#000000" points="142.5,-119.7 142.5,-142.7 255.5,-142.7 255.5,-119.7 142.5,-119.7"/>
<text text-anchor="start" x="147.5" y="-128.3" font-family="Helvetica,sans-Serif" font-weight="bold" font-size="11.00" fill="#000000">commentaire</text>
<text text-anchor="start" x="221.0219" y="-127.8" font-family="Helvetica,sans-Serif" font-size="11.00" fill="#000000">[table]</text>
<polygon fill="none" stroke="#000000" points="142.5,-97.7 142.5,-119.7 255.5,-119.7 255.5,-97.7 142.5,-97.7"/>
<image xlink:href="../../images/primaryKeys.png" width="11px" height="12px" preserveAspectRatio="xMinYMin meet" x="147.5" y="-114.7"/>
<text text-anchor="start" x="171.5" y="-104.8" font-family="Helvetica,sans-Serif" font-size="11.00" fill="#000000">id</text>
<polygon fill="#ffffff" stroke="transparent" points="142.5,-75.7 142.5,-97.7 255.5,-97.7 255.5,-75.7 142.5,-75.7"/>
<polygon fill="none" stroke="#000000" points="142.5,-75.7 142.5,-97.7 255.5,-97.7 255.5,-75.7 142.5,-75.7"/>
<image xlink:href="../../images/foreignKeys.png" width="11px" height="12px" preserveAspectRatio="xMinYMin meet" x="147.5" y="-92.7"/>
<text text-anchor="start" x="171.5" y="-82.8" font-family="Helvetica,sans-Serif" font-size="11.00" fill="#000000">post_id</text>
<polygon fill="none" stroke="#000000" points="142.5,-56.7 142.5,-75.7 255.5,-75.7 255.5,-56.7 142.5,-56.7"/>
<text text-anchor="start" x="145.5" y="-62.8" font-family="Helvetica,sans-Serif" font-size="11.00" fill="#000000">...</text>
<polygon fill="#ffffff" stroke="transparent" points="142.5,-37.7 142.5,-56.7 184.5,-56.7 184.5,-37.7 142.5,-37.7"/>
<polygon fill="none" stroke="#000000" points="142.5,-37.7 142.5,-56.7 184.5,-56.7 184.5,-37.7 142.5,-37.7"/>
<text text-anchor="start" x="145.5" y="-43.8" font-family="Helvetica,sans-Serif" font-size="11.00" fill="#000000">&lt; 1</text>
<polygon fill="#ffffff" stroke="transparent" points="184.5,-37.7 184.5,-56.7 232.5,-56.7 232.5,-37.7 184.5,-37.7"/>
<polygon fill="none" stroke="#000000" points="184.5,-37.7 184.5,-56.7 232.5,-56.7 232.5,-37.7 184.5,-37.7"/>
<text text-anchor="start" x="197.1105" y="-43.8" font-family="Helvetica,sans-Serif" font-size="11.00" fill="#000000">0 rows</text>
<polygon fill="#ffffff" stroke="transparent" points="232.5,-37.7 232.5,-56.7 255.5,-56.7 255.5,-37.7 232.5,-37.7"/>
<polygon fill="none" stroke="#000000" points="232.5,-37.7 232.5,-56.7 255.5,-56.7 255.5,-37.7 232.5,-37.7"/>
<text text-anchor="start" x="246.3862" y="-43.8" font-family="Helvetica,sans-Serif" font-size="11.00" fill="#000000"> &#160;</text>
</a>
</g>
</g>
<!-- post -->
<g id="node2" class="node">
<title>post</title>
<g id="a_node2"><a xlink:href="../../tables/post.html" xlink:title="post" target="_top">
<polygon fill="#ffffff" stroke="transparent" points="8,-38.2 8,-121.2 93,-121.2 93,-38.2 8,-38.2"/>
<polygon fill="#f5f5f5" stroke="transparent" points="8.5,-97.7 8.5,-120.7 93.5,-120.7 93.5,-97.7 8.5,-97.7"/>
<polygon fill="none" stroke="#000000" points="8.5,-97.7 8.5,-120.7 93.5,-120.7 93.5,-97.7 8.5,-97.7"/>
<text text-anchor="start" x="13.5" y="-106.3" font-family="Helvetica,sans-Serif" font-weight="bold" font-size="11.00" fill="#000000">post</text>
<text text-anchor="start" x="58.5437" y="-105.8" font-family="Helvetica,sans-Serif" font-size="11.00" fill="#000000">[table]</text>
<polygon fill="none" stroke="#000000" points="8.5,-75.7 8.5,-97.7 93.5,-97.7 93.5,-75.7 8.5,-75.7"/>
<image xlink:href="../../images/primaryKeys.png" width="11px" height="12px" preserveAspectRatio="xMinYMin meet" x="13.5" y="-92.7"/>
<text text-anchor="start" x="28.5" y="-82.8" font-family="Helvetica,sans-Serif" font-size="11.00" fill="#000000">id</text>
<polygon fill="none" stroke="#000000" points="8.5,-56.7 8.5,-75.7 93.5,-75.7 93.5,-56.7 8.5,-56.7"/>
<text text-anchor="start" x="11.5" y="-62.8" font-family="Helvetica,sans-Serif" font-size="11.00" fill="#000000">...</text>
<polygon fill="#ffffff" stroke="transparent" points="8.5,-37.7 8.5,-56.7 24.5,-56.7 24.5,-37.7 8.5,-37.7"/>
<polygon fill="none" stroke="#000000" points="8.5,-37.7 8.5,-56.7 24.5,-56.7 24.5,-37.7 8.5,-37.7"/>
<text text-anchor="start" x="11.5" y="-43.8" font-family="Helvetica,sans-Serif" font-size="11.00" fill="#000000"> &#160;</text>
<polygon fill="#ffffff" stroke="transparent" points="24.5,-37.7 24.5,-56.7 70.5,-56.7 70.5,-37.7 24.5,-37.7"/>
<polygon fill="none" stroke="#000000" points="24.5,-37.7 24.5,-56.7 70.5,-56.7 70.5,-37.7 24.5,-37.7"/>
<text text-anchor="start" x="28.9956" y="-43.8" font-family="Helvetica,sans-Serif" font-size="11.00" fill="#000000">10 rows</text>
<polygon fill="#ffffff" stroke="transparent" points="70.5,-37.7 70.5,-56.7 93.5,-56.7 93.5,-37.7 70.5,-37.7"/>
<polygon fill="none" stroke="#000000" points="70.5,-37.7 70.5,-56.7 93.5,-56.7 93.5,-37.7 70.5,-37.7"/>
<text text-anchor="start" x="74.9053" y="-43.8" font-family="Helvetica,sans-Serif" font-size="11.00" fill="#000000">1 &gt;</text>
</a>
</g>
</g>
<!-- commentaire&#45;&gt;post -->
<g id="edge1" class="edge">
<title>commentaire:w&#45;&gt;post:e</title>
<path fill="none" stroke="#000000" d="M127.9909,-86.7C116.6774,-86.7 109.4931,-86.7 93.5,-86.7"/>
<polygon fill="#000000" stroke="#000000" points="134.5,-86.7001 142.5,-90.3 138.5,-86.7 142.5,-86.7 142.5,-86.7 142.5,-86.7 138.5,-86.7 142.5,-83.1 134.5,-86.7001 134.5,-86.7001"/>
<ellipse fill="none" stroke="#000000" cx="131.3" cy="-86.7001" rx="3.2" ry="3.2"/>
</g>
</g>
</svg>
